# xmcd
#
# Track frame offsets: 
#        150
#        15771
#        33829
#        49427
#        67101
#        87953
#        102679
#        124934
#        141515
#        163047
#        180731
#        199963
#        212924
#
# Disc length: 3113 seconds
#
# Revision: 0
# Processed by: cddbd v1.5.1PL2 Copyright (c) Steve Scherf et al.
# Submitted via: ExactAudioCopy v0.95b1
#
DISCID=c40c270d
DTITLE=Sara Evans - Real Fine Place
DYEAR=1900
DGENRE=Country
TTITLE0=Coalmine
TTITLE1=A Real Fine Place To Start
TTITLE2=Cheatin'
TTITLE3=New Home Town
TTITLE4=You'll Always Be My Baby
TTITLE5=Supernatural
TTITLE6=Roll Me Back In Time
TTITLE7=The Secrets That We Keep
TTITLE8=Bible Song
TTITLE9=Tell Me
TTITLE10=Missing Missouri
TTITLE11=Momma's Night Out
TTITLE12=These Four Walls
EXTD=
EXTT0=
EXTT1=
EXTT2=
EXTT3=
EXTT4=
EXTT5=
EXTT6=
EXTT7=
EXTT8=
EXTT9=
EXTT10=
EXTT11=
EXTT12=
PLAYORDER=
